<?xml version="1.0" encoding="UTF-8" standalone="no"?>
<!-- Generator: Adobe Illustrator 16.0.0, SVG Export Plug-In . SVG Version: 6.00 Build 0)  -->

<svg
   version="1.1"
   id="Capa_1"
   x="0px"
   y="0px"
   width="64"
   height="64"
   viewBox="0 0 64 64"
   xml:space="preserve"
   sodipodi:docname="file.svg"
   inkscape:version="1.1.2 (0a00cf5339, 2022-02-04)"
   xmlns:inkscape="http://www.inkscape.org/namespaces/inkscape"
   xmlns:sodipodi="http://sodipodi.sourceforge.net/DTD/sodipodi-0.dtd"
   xmlns="http://www.w3.org/2000/svg"
   xmlns:svg="http://www.w3.org/2000/svg"><defs
   id="defs55" /><sodipodi:namedview
   id="namedview53"
   pagecolor="#ffffff"
   bordercolor="#666666"
   borderopacity="1.0"
   inkscape:pageshadow="2"
   inkscape:pageopacity="0.0"
   inkscape:pagecheckerboard="0"
   showgrid="false"
   inkscape:zoom="13.816789"
   inkscape:cx="9.8069092"
   inkscape:cy="40.711339"
   inkscape:window-width="3440"
   inkscape:window-height="1376"
   inkscape:window-x="0"
   inkscape:window-y="27"
   inkscape:window-maximized="1"
   inkscape:current-layer="Capa_1" />
<g
   id="g20"
   transform="matrix(1.5837325,0,0,1.5818274,10.615473,0.53350768)">
	<g
   id="g18">
		<path
   d="m 19.812,20.062 c -0.037,0.069 -0.111,0.137 -0.111,0.2 v 6.392 c 0,1.056 -0.889,1.875 -1.94,1.875 H 4.394 c -1.055,0 -1.931,-0.82 -1.931,-1.875 V 9.537 c 0,-1.054 0.876,-1.938 1.931,-1.938 h 13.364 c 0.385,0 0.741,0.128 1.04,0.323 L 20.944,5.545 C 20.567,5.321 20.13,5.205 19.657,5.205 H 2.393 C 1.063,5.205 0,6.271 0,7.603 v 20.949 c 0,1.389 1.107,2.51 2.495,2.51 h 17.159 c 1.39,0 2.508,-1.121 2.508,-2.51 V 17.484 l -2.07,2.319 c -0.089,0.101 -0.176,0.187 -0.28,0.259 z"
   id="path2" />
		<path
   d="m 5.646,10.881 c -0.681,0 -1.232,0.516 -1.232,1.198 0,0.679 0.552,1.196 1.232,1.196 h 8.35 l 2.186,-2.394 z"
   id="path4" />
		<path
   d="m 12.619,15.055 c 0.012,-0.042 0.026,-0.069 0.042,-0.138 H 5.646 c -0.681,0 -1.232,0.55 -1.232,1.231 0,0.676 0.552,1.229 1.232,1.229 h 6.308 z"
   id="path6" />
		<path
   d="M 9.901,19.022 H 6.213 5.646 c -0.681,0 -1.23,0.551 -1.23,1.229 0,0.678 0.55,1.23 1.23,1.23 H 7.82 8.501 9.902 c 0.545,0 1.005,-0.36 1.168,-0.848 0.009,-0.131 0.03,-0.271 0.064,-0.396 -0.003,-0.617 -0.458,-1.121 -1.053,-1.205 -0.059,-0.007 -0.119,-0.01 -0.18,-0.01 z"
   id="path8" />
		<path
   d="m 23.08,5.309 -7.905,8.811 -0.535,0.597 4.278,3.836 0.535,-0.596 7.902,-8.81 L 27.994,8.438 23.715,4.6 Z m -0.435,3.985 -5.098,5.681 c -0.064,0.071 -0.152,0.114 -0.249,0.12 -0.097,0.005 -0.188,-0.028 -0.261,-0.092 l -0.254,-0.227 c -0.146,-0.133 -0.158,-0.36 -0.025,-0.509 l 5.098,-5.682 c 0.062,-0.071 0.152,-0.114 0.25,-0.119 0.094,-0.005 0.188,0.028 0.26,0.091 l 0.25,0.228 c 0.15,0.133 0.159,0.361 0.029,0.509 z m 1.479,-2.699 0.252,0.226 c 0.146,0.132 0.16,0.358 0.028,0.506 0,0 -0.002,0.001 -0.002,0.002 l -0.44,0.494 c -0.019,0.02 -0.038,0.037 -0.06,0.052 -0.057,0.04 -0.121,0.064 -0.189,0.068 -0.096,0.005 -0.188,-0.028 -0.26,-0.092 L 23.199,7.625 C 23.129,7.562 23.086,7.472 23.081,7.376 23.074,7.281 23.107,7.187 23.173,7.116 l 0.442,-0.494 c 0.133,-0.146 0.364,-0.16 0.509,-0.027 z"
   id="path10" />
		<polygon
   points="29.458,6.805 25.18,2.967 24.518,3.707 24.128,4.139 28.404,7.978 28.795,7.543 "
   id="polygon12" />
		<path
   d="M 31.178,3.023 28.752,0.848 C 28.507,0.628 28.186,0.514 27.856,0.532 27.526,0.55 27.215,0.698 26.998,0.943 L 25.567,2.537 29.843,6.374 31.274,4.78 C 31.732,4.27 31.691,3.482 31.178,3.023 Z M 29.757,4.775 27.165,2.45 27.914,1.616 30.505,3.941 Z"
   id="path14" />
		<path
   d="m 13.487,21.139 4.917,-2.015 -4.274,-3.835 -1.473,5.107 c -0.065,0.229 0.005,0.476 0.182,0.633 0.177,0.158 0.428,0.202 0.648,0.11 z m 1.032,-4.487 2.485,2.229 -1.932,0.792 -1.131,-1.014 z"
   id="path16" />
	</g>
</g>
<g
   id="g22">
</g>
<g
   id="g24">
</g>
<g
   id="g26">
</g>
<g
   id="g28">
</g>
<g
   id="g30">
</g>
<g
   id="g32">
</g>
<g
   id="g34">
</g>
<g
   id="g36">
</g>
<g
   id="g38">
</g>
<g
   id="g40">
</g>
<g
   id="g42">
</g>
<g
   id="g44">
</g>
<g
   id="g46">
</g>
<g
   id="g48">
</g>
<g
   id="g50">
</g>
<text
   xml:space="preserve"
   style="font-style:normal;font-weight:normal;font-size:18.0556px;line-height:1.25;font-family:sans-serif;fill:#000000;fill-opacity:1;stroke:none;stroke-width:3.38543"
   x="11.567064"
   y="73.821404"
   id="text3475"
   transform="scale(1.1644769,0.85875469)"><tspan
     sodipodi:role="line"
     id="tspan3473"
     x="11.567064"
     y="73.821404"
     style="font-size:18.0556px;stroke-width:3.38543">File</tspan></text></svg>
