<?xml version="1.0" encoding="UTF-8" standalone="no"?>
<!-- Generator: Adobe Illustrator 19.1.0, SVG Export Plug-In . SVG Version: 6.00 Build 0)  -->

<svg
   version="1.1"
   id="Capa_1"
   x="0px"
   y="0px"
   viewBox="0 0 64 64"
   xml:space="preserve"
   sodipodi:docname="gate.svg"
   width="64"
   height="64"
   inkscape:version="1.1.2 (0a00cf5339, 2022-02-04)"
   xmlns:inkscape="http://www.inkscape.org/namespaces/inkscape"
   xmlns:sodipodi="http://sodipodi.sourceforge.net/DTD/sodipodi-0.dtd"
   xmlns="http://www.w3.org/2000/svg"
   xmlns:svg="http://www.w3.org/2000/svg"><defs
   id="defs89" /><sodipodi:namedview
   id="namedview87"
   pagecolor="#ffffff"
   bordercolor="#666666"
   borderopacity="1.0"
   inkscape:pageshadow="2"
   inkscape:pageopacity="0.0"
   inkscape:pagecheckerboard="0"
   showgrid="false"
   inkscape:zoom="10.119741"
   inkscape:cx="31.176686"
   inkscape:cy="26.433482"
   inkscape:window-width="3440"
   inkscape:window-height="1376"
   inkscape:window-x="0"
   inkscape:window-y="27"
   inkscape:window-maximized="1"
   inkscape:current-layer="Capa_1" />
<g
   id="g54"
   transform="matrix(0.10221886,0,0,0.09913818,6.8279217,0.66697088)">
	<g
   id="g52">
		<path
   d="m 305.4,244 c 0,-33.9 -27.6,-61.4 -61.4,-61.4 -33.8,0 -61.4,27.5 -61.4,61.4 0,33.9 27.6,61.4 61.4,61.4 33.8,0 61.4,-27.5 61.4,-61.4 z M 244,281.4 c -20.6,0 -37.4,-16.8 -37.4,-37.4 0,-20.6 16.8,-37.4 37.4,-37.4 20.6,0 37.4,16.8 37.4,37.4 0,20.6 -16.8,37.4 -37.4,37.4 z"
   id="path2" />
		<path
   d="m 155.1,232 c -6.6,0 -12,5.4 -12,12 0,6.6 5.4,12 12,12 6.6,0 12,-5.4 12,-12 0,-6.6 -5.4,-12 -12,-12 z"
   id="path4" />
		<path
   d="m 103.8,244 c 0,6.6 5.4,12 12,12 6.6,0 12,-5.4 12,-12 0,-6.6 -5.4,-12 -12,-12 -6.6,0 -12,5.4 -12,12 z"
   id="path6" />
		<path
   d="M 88.5,244 C 88.5,219.6 68.6,199.7 44.2,199.7 19.8,199.7 0,219.6 0,244 c 0,24.4 19.9,44.3 44.3,44.3 24.4,0 44.2,-19.9 44.2,-44.3 z M 44.3,264.3 C 33.1,264.3 24,255.2 24,244 c 0,-11.2 9.1,-20.3 20.3,-20.3 11.2,0 20.3,9.1 20.3,20.3 0,11.2 -9.2,20.3 -20.3,20.3 z"
   id="path8" />
		<circle
   cx="372.20001"
   cy="244"
   r="12"
   id="circle10" />
		<path
   d="m 332.9,256 c 6.6,0 12,-5.4 12,-12 0,-6.6 -5.4,-12 -12,-12 -6.6,0 -12,5.4 -12,12 0,6.6 5.4,12 12,12 z"
   id="path12" />
		<path
   d="m 443.7,199.7 c -24.4,0 -44.3,19.9 -44.3,44.3 0,24.4 19.9,44.3 44.3,44.3 24.4,0 44.3,-19.9 44.3,-44.3 0,-24.4 -19.9,-44.3 -44.3,-44.3 z m 0,64.6 c -11.2,0 -20.3,-9.1 -20.3,-20.3 0,-11.2 9.1,-20.3 20.3,-20.3 11.2,0 20.3,9.1 20.3,20.3 0,11.2 -9.1,20.3 -20.3,20.3 z"
   id="path14" />
		<path
   d="m 244,320.9 c -6.6,0 -12,5.4 -12,12 0,6.6 5.4,12 12,12 6.6,0 12,-5.4 12,-12 0,-6.6 -5.4,-12 -12,-12 z"
   id="path16" />
		<path
   d="m 244,360.2 c -6.6,0 -12,5.4 -12,12 0,6.6 5.4,12 12,12 6.6,0 12,-5.4 12,-12 0,-6.6 -5.4,-12 -12,-12 z"
   id="path18" />
		<path
   d="m 244,399.5 c -24.4,0 -44.3,19.9 -44.3,44.3 0,24.4 19.9,44.2 44.3,44.2 24.4,0 44.3,-19.9 44.3,-44.3 0,-24.4 -19.9,-44.2 -44.3,-44.2 z m 0,64.5 c -11.2,0 -20.3,-9.1 -20.3,-20.3 0,-11.2 9.1,-20.3 20.3,-20.3 11.2,0 20.3,9.1 20.3,20.3 0,11.2 -9.1,20.3 -20.3,20.3 z"
   id="path20" />
		<path
   d="m 244,167.1 c 6.6,0 12,-5.4 12,-12 0,-6.6 -5.4,-12 -12,-12 -6.6,0 -12,5.4 -12,12 0,6.6 5.4,12 12,12 z"
   id="path22" />
		<circle
   cx="244"
   cy="115.8"
   r="12"
   id="circle24" />
		<path
   d="m 244,88.5 c 24.4,0 44.3,-19.9 44.3,-44.3 C 288.3,19.8 268.4,0 244,0 c -24.4,0 -44.3,19.9 -44.3,44.3 0,24.4 19.9,44.2 44.3,44.2 z M 244,24 c 11.2,0 20.3,9.1 20.3,20.3 0,11.2 -9.1,20.3 -20.3,20.3 -11.2,0 -20.3,-9.1 -20.3,-20.3 0,-11.2 9.1,-20.3 20.3,-20.3 z"
   id="path26" />
		<path
   d="m 172.7,298.4 c -4.7,4.7 -4.7,12.3 0,17 4.7,4.7 12.3,4.7 17,0 4.7,-4.7 4.7,-12.3 0,-17 -4.8,-4.7 -12.4,-4.7 -17,0 z"
   id="path28" />
		<circle
   cx="153.39999"
   cy="334.60001"
   r="12"
   id="circle30" />
		<path
   d="m 71.5,353.9 c -17.3,17.3 -17.3,45.3 0,62.6 17.3,17.3 45.3,17.3 62.6,0 17.3,-17.3 17.3,-45.3 0,-62.6 -17.3,-17.2 -45.4,-17.2 -62.6,0 z m 45.6,45.7 c -7.9,7.9 -20.7,7.9 -28.6,0 -7.9,-7.9 -7.9,-20.7 0,-28.6 7.9,-7.9 20.7,-7.9 28.6,0 7.9,7.8 7.9,20.7 0,28.6 z"
   id="path32" />
		<circle
   cx="334.60001"
   cy="153.39999"
   r="12"
   id="circle34" />
		<circle
   cx="306.89999"
   cy="181.10001"
   r="12"
   id="circle36" />
		<path
   d="m 416.5,134.1 c 17.3,-17.3 17.3,-45.3 0,-62.6 -17.3,-17.3 -45.3,-17.3 -62.6,0 -17.3,17.3 -17.3,45.3 0,62.6 17.3,17.3 45.4,17.2 62.6,0 z M 370.9,88.4 c 7.9,-7.9 20.7,-7.9 28.6,0 7.9,7.9 7.9,20.7 0,28.6 -7.9,7.9 -20.7,7.9 -28.6,0 -7.9,-7.8 -7.9,-20.7 0,-28.6 z"
   id="path38" />
		<circle
   cx="334.60001"
   cy="334.60001"
   r="12"
   id="circle40" />
		<path
   d="m 298.4,298.4 c -4.7,4.7 -4.7,12.3 0,17 4.7,4.7 12.3,4.7 17,0 4.7,-4.7 4.7,-12.3 0,-17 -4.7,-4.7 -12.3,-4.7 -17,0 z"
   id="path42" />
		<path
   d="m 353.9,353.9 c -17.3,17.3 -17.3,45.3 0,62.6 17.3,17.3 45.3,17.3 62.6,0 17.3,-17.3 17.3,-45.3 0,-62.6 -17.2,-17.2 -45.3,-17.2 -62.6,0 z m 45.7,45.7 c -7.9,7.9 -20.7,7.9 -28.6,0 -7.9,-7.9 -7.9,-20.7 0,-28.6 7.9,-7.9 20.7,-7.9 28.6,0 7.9,7.8 7.9,20.7 0,28.6 z"
   id="path44" />
		<circle
   cx="181.10001"
   cy="181.10001"
   r="12"
   id="circle46" />
		<circle
   cx="153.39999"
   cy="153.39999"
   r="12"
   id="circle48" />
		<path
   d="m 134.1,134.1 c 17.3,-17.3 17.3,-45.3 0,-62.6 -17.3,-17.3 -45.3,-17.3 -62.6,0 -17.3,17.3 -17.3,45.3 0,62.6 17.2,17.2 45.3,17.2 62.6,0 z M 88.4,88.4 c 7.9,-7.9 20.7,-7.9 28.6,0 7.9,7.9 7.9,20.7 0,28.6 -7.9,7.9 -20.7,7.9 -28.6,0 -7.9,-7.8 -7.9,-20.7 0,-28.6 z"
   id="path50" />
	</g>
</g>
<g
   id="g56">
</g>
<g
   id="g58">
</g>
<g
   id="g60">
</g>
<g
   id="g62">
</g>
<g
   id="g64">
</g>
<g
   id="g66">
</g>
<g
   id="g68">
</g>
<g
   id="g70">
</g>
<g
   id="g72">
</g>
<g
   id="g74">
</g>
<g
   id="g76">
</g>
<g
   id="g78">
</g>
<g
   id="g80">
</g>
<g
   id="g82">
</g>
<g
   id="g84">
</g>
<text
   xml:space="preserve"
   style="font-style:normal;font-weight:normal;font-size:14.9039px;line-height:1.25;font-family:sans-serif;fill:#000000;fill-opacity:1;stroke:none;stroke-width:2.79449"
   x="15.755564"
   y="59.336468"
   id="text3349"
   transform="scale(0.93937861,1.0645335)"><tspan
     sodipodi:role="line"
     id="tspan3347"
     x="15.755564"
     y="59.336468"
     style="font-size:14.9039px;stroke-width:2.79449">Gate</tspan></text></svg>
