<?xml version="1.0" encoding="UTF-8" standalone="no"?>
<!-- Generator: Adobe Illustrator 18.0.0, SVG Export Plug-In . SVG Version: 6.00 Build 0)  -->

<svg
   version="1.1"
   id="Capa_1"
   x="0px"
   y="0px"
   viewBox="0 0 64 64"
   xml:space="preserve"
   sodipodi:docname="tcp.svg"
   width="64"
   height="64"
   inkscape:version="1.1.2 (0a00cf5339, 2022-02-04)"
   xmlns:inkscape="http://www.inkscape.org/namespaces/inkscape"
   xmlns:sodipodi="http://sodipodi.sourceforge.net/DTD/sodipodi-0.dtd"
   xmlns="http://www.w3.org/2000/svg"
   xmlns:svg="http://www.w3.org/2000/svg"><defs
   id="defs45" /><sodipodi:namedview
   id="namedview43"
   pagecolor="#ffffff"
   bordercolor="#666666"
   borderopacity="1.0"
   inkscape:pageshadow="2"
   inkscape:pageopacity="0.0"
   inkscape:pagecheckerboard="0"
   showgrid="false"
   inkscape:zoom="8.3138615"
   inkscape:cx="40.11373"
   inkscape:cy="58.637012"
   inkscape:window-width="3440"
   inkscape:window-height="1376"
   inkscape:window-x="0"
   inkscape:window-y="27"
   inkscape:window-maximized="1"
   inkscape:current-layer="Capa_1" />
<g
   id="g10"
   transform="matrix(0.19138684,0,0,0.16574174,4.1431982,0.26175268)">
	<path
   d="m 110.194,199.303 c -7.897,-8.085 -18.455,-13.49 -30.515,-15.797 17.042,-5.709 29.361,-21.814 29.361,-40.753 0,-23.696 -19.279,-42.976 -42.976,-42.976 -23.697,0 -42.974,19.28 -42.974,42.976 0,18.939 12.319,35.044 29.36,40.753 -12.059,2.307 -22.616,7.711 -30.514,15.795 -10.432,10.679 -15.735,25.42 -15.334,42.629 0.126,5.428 4.563,9.762 9.992,9.762 h 98.943 c 5.429,0 9.865,-4.334 9.991,-9.762 0.402,-17.209 -4.901,-31.95 -15.334,-42.627 z"
   id="path2" />
	<path
   d="m 275.064,139.336 c -7.897,-8.084 -18.455,-13.489 -30.515,-15.797 17.042,-5.708 29.361,-21.813 29.361,-40.752 0,-23.696 -19.279,-42.976 -42.976,-42.976 -23.697,0 -42.976,19.279 -42.976,42.976 0,18.938 12.319,35.044 29.36,40.752 -12.059,2.308 -22.616,7.712 -30.514,15.796 -10.433,10.679 -15.735,25.42 -15.334,42.629 0.126,5.427 4.563,9.762 9.991,9.762 h 98.943 c 5.429,0 9.866,-4.335 9.992,-9.762 0.403,-17.209 -4.9,-31.95 -15.332,-42.628 z"
   id="path4" />
	<path
   d="m 48.472,90.278 c 1.754,1.241 3.771,1.839 5.768,1.839 3.132,0 6.217,-1.469 8.165,-4.22 19.613,-27.695 51.442,-44.31 85.276,-44.574 l -6.248,6.247 c -3.903,3.903 -3.903,10.231 0,14.135 1.952,1.951 4.51,2.927 7.067,2.927 2.557,0 5.115,-0.976 7.067,-2.927 l 23.321,-23.321 c 3.903,-3.903 3.903,-10.231 0,-14.135 L 155.568,2.926 c -3.904,-3.901 -10.23,-3.901 -14.135,0 -3.903,3.903 -3.903,10.232 0,14.135 l 6.271,6.273 C 107.39,23.59 69.45,43.36 46.091,76.345 c -3.189,4.504 -2.123,10.742 2.381,13.933 z"
   id="path6" />
	<path
   d="m 248.94,206.516 c -4.528,-3.158 -10.758,-2.048 -13.915,2.479 -18.145,26.01 -46.938,42.375 -78.213,44.855 l 6.418,-6.418 c 3.903,-3.903 3.903,-10.232 0,-14.135 -3.903,-3.902 -10.23,-3.902 -14.134,0 l -23.321,23.32 c -3.902,3.903 -3.902,10.231 0,14.135 l 23.321,23.32 c 1.952,1.951 4.509,2.928 7.067,2.928 2.558,0 5.115,-0.977 7.066,-2.928 3.903,-3.902 3.903,-10.231 0,-14.134 l -6.07,-6.071 c 37.679,-2.613 72.444,-22.165 94.258,-53.437 3.158,-4.526 2.049,-10.757 -2.477,-13.914 z"
   id="path8" />
</g>
<g
   id="g12">
</g>
<g
   id="g14">
</g>
<g
   id="g16">
</g>
<g
   id="g18">
</g>
<g
   id="g20">
</g>
<g
   id="g22">
</g>
<g
   id="g24">
</g>
<g
   id="g26">
</g>
<g
   id="g28">
</g>
<g
   id="g30">
</g>
<g
   id="g32">
</g>
<g
   id="g34">
</g>
<g
   id="g36">
</g>
<g
   id="g38">
</g>
<g
   id="g40">
</g>
<text
   xml:space="preserve"
   style="font-style:normal;font-weight:normal;font-size:16.6917px;line-height:1.25;font-family:sans-serif;fill:#000000;fill-opacity:1;stroke:none;stroke-width:3.12968"
   x="16.173832"
   y="66.313217"
   id="text11291"
   transform="scale(1.0520556,0.95052012)"><tspan
     sodipodi:role="line"
     id="tspan11289"
     x="16.173832"
     y="66.313217"
     style="font-size:16.6917px;stroke-width:3.12968">TCP</tspan></text></svg>
